<?xml version="1.0" encoding="UTF-8"?>
<svg width="213px" height="28px" viewBox="0 0 213 28" version="1.1" xmlns="http://www.w3.org/2000/svg" xmlns:xlink="http://www.w3.org/1999/xlink">
    <!-- Generator: Sketch 52.6 (67491) - http://www.bohemiancoding.com/sketch -->
    <title>docare</title>
    <desc>Created with Sketch.</desc>
    <g id="Page-1" stroke="none" stroke-width="1" fill="none" fill-rule="evenodd">
        <g id="docare" fill="#FFFFFF">
            <polygon id="Path" points="212.61 4.56 208.89 4.56 208.89 0.84 205.18 0.84 205.18 4.56 201.46 4.56 201.46 8.27 205.18 8.27 205.18 11.99 208.89 11.99 208.89 8.27 212.61 8.27"></polygon>
            <path d="M2.74,20.86 C2.74,23.99 3.72,25.48 8.17,25.48 L12.62,25.48 C16.68,25.48 17.98,23.77 17.98,20.83 L17.98,17.76 C17.98,13.9 15.73,13.27 12.04,13.27 L8.36,13.27 C4.61,13.27 2.74,13.97 2.74,17.7 L2.74,20.86 Z M20.71,27.43 L18.17,27.43 L18.17,24.87 L18.11,24.87 C17.32,26.83 15.09,27.69 12.24,27.69 L8.43,27.69 C3.48,27.69 0.02,26.46 0.02,20.89 L0.02,18.04 C0.02,12.88 2.02,11.05 8.59,11.05 L12.75,11.05 C15.86,11.05 17.35,11.78 17.93,13.45 L17.99,13.45 L17.99,4.53 L20.72,4.53 L20.72,27.43 L20.71,27.43 Z" id="Shape" fill-rule="nonzero"></path>
            <path d="M44,17.76 C44,14 41.78,13.27 38.6,13.27 L33.04,13.27 C29.87,13.27 27.64,14 27.64,17.76 L27.64,20.99 C27.64,24.75 29.86,25.48 33.04,25.48 L38.6,25.48 C41.78,25.48 44,24.75 44,20.99 L44,17.76 Z M24.92,17.6 C24.92,12.29 28.7,11.05 33.87,11.05 L37.78,11.05 C42.96,11.05 46.73,12.28 46.73,17.6 L46.73,21.14 C46.73,26.45 42.95,27.69 37.78,27.69 L33.87,27.69 C28.69,27.69 24.92,26.46 24.92,21.14 L24.92,17.6 Z" id="Shape" fill-rule="nonzero"></path>
            <path d="M50.41,17.57 C50.41,11.72 54.54,11.06 58.54,11.06 L63.11,11.06 C68.19,11.06 70.19,13.12 70.19,16.53 L70.19,16.97 L67.65,16.97 L67.65,16.59 C67.65,13.9 65.87,13.27 63.14,13.27 L58.12,13.27 C55.55,13.27 53.13,13.65 53.13,17.67 L53.13,21.05 C53.13,24.66 55.35,25.48 58.66,25.48 L63.26,25.48 C65.8,25.48 67.93,24.72 67.93,22.1 L67.93,21.56 L70.47,21.56 L70.47,22.03 C70.47,26.11 68.44,27.69 63.36,27.69 L57.2,27.69 C54.76,27.69 50.41,27.03 50.41,21.17 L50.41,17.57 Z" id="Path"></path>
            <path d="M91.47,22.37 C91.47,20.16 89.5,19.87 85.31,19.87 L81.12,19.87 C77.6,19.87 76.61,20.38 76.61,22.4 L76.61,22.91 C76.61,24.71 77.24,25.47 80.99,25.47 L84.61,25.47 C89.56,25.47 91.47,25.12 91.47,23.1 L91.47,22.37 Z M91.47,25.82 L91.41,25.82 C90.68,27.28 89.82,27.69 85.63,27.69 L79.09,27.69 C74.96,27.69 73.88,25.89 73.88,22.85 L73.88,21.77 C73.88,18.1 76.48,17.66 81.25,17.66 L85.63,17.66 C89.19,17.66 90.46,18.04 91.41,19.59 L91.47,19.59 L91.47,16.55 C91.47,13.64 89.63,13.26 85.44,13.26 L81.44,13.26 C78.01,13.26 77.34,14.08 77.34,15.41 L77.34,15.98 L74.61,15.98 L74.61,15.2 C74.61,12.26 76.48,11.06 81.37,11.06 L85.69,11.06 C90.77,11.06 94.2,11.82 94.2,16.63 L94.2,27.45 L91.47,27.45 L91.47,25.82 Z" id="Shape" fill-rule="nonzero"></path>
            <path d="M98.79,11.31 L101.33,11.31 L101.33,13.65 L101.39,13.65 C102.4,11.56 104.47,11.06 106.34,11.06 L108.91,11.06 C114.02,11.06 115.7,12.71 115.7,16.66 L115.7,18.59 L113.16,18.59 L113.16,17.89 C113.16,13.91 112.33,13.27 107.48,13.27 L105.8,13.27 C102.91,13.27 101.51,15.1 101.51,17.19 L101.51,27.44 L98.78,27.44 L98.78,11.31 L98.79,11.31 Z" id="Path"></path>
            <path d="M136.72,16.56 C136.72,14.91 135.48,13.27 131.04,13.27 L127.04,13.27 C122.72,13.27 121.71,13.97 121.45,17.63 L136.72,17.63 L136.72,16.56 Z M118.72,17.57 C118.72,11.72 122.78,11.06 126.66,11.06 L131.04,11.06 C135.93,11.06 139.45,12.29 139.45,18.05 L139.45,19.85 L121.45,19.85 L121.45,20.86 C121.45,24.53 123.23,25.48 127.99,25.48 L131.74,25.48 C135.17,25.48 136.57,25.04 136.73,22.57 L139.46,22.57 L139.46,22.89 C139.46,26.59 136.38,27.7 131.3,27.7 L126.35,27.7 C122.79,27.7 118.73,27.04 118.73,21.09 L118.73,17.57 L118.72,17.57 Z" id="Shape" fill-rule="nonzero"></path>
            <rect id="Rectangle" x="145.16" y="23.51" width="3.56" height="3.92"></rect>
            <path d="M154.3,17.57 C154.3,11.72 158.43,11.06 162.43,11.06 L167,11.06 C172.08,11.06 174.08,13.12 174.08,16.53 L174.08,16.97 L171.54,16.97 L171.54,16.59 C171.54,13.9 169.76,13.27 167.03,13.27 L162.01,13.27 C159.44,13.27 157.02,13.65 157.02,17.67 L157.02,21.05 C157.02,24.66 159.24,25.48 162.54,25.48 L167.14,25.48 C169.68,25.48 171.81,24.72 171.81,22.1 L171.81,21.56 L174.35,21.56 L174.35,22.03 C174.35,26.11 172.32,27.69 167.24,27.69 L161.08,27.69 C158.63,27.69 154.29,27.03 154.29,21.17 L154.29,17.57 L154.3,17.57 Z" id="Path"></path>
            <path d="M178.19,4.54 L180.92,4.54 L180.92,14.09 L180.98,14.09 C182,11.59 184.12,11.05 187.52,11.05 L191.42,11.05 C196.53,11.05 198.15,13.61 198.15,16.52 L198.15,27.43 L195.42,27.43 L195.42,17.19 C195.42,14.82 194.75,13.27 189.45,13.27 L188.75,13.27 C182.37,13.27 180.91,14.47 180.91,18.27 L180.91,27.44 L178.18,27.44 L178.18,4.54 L178.19,4.54 Z" id="Path"></path>
        </g>
    </g>
</svg>